<?xml version="1.0" encoding="utf-8"?>
<!-- Generator: Adobe Illustrator 24.3.0, SVG Export Plug-In . SVG Version: 6.00 Build 0)  -->
<svg version="1.1" id="Capa_1" xmlns="http://www.w3.org/2000/svg" xmlns:xlink="http://www.w3.org/1999/xlink" x="0px" y="0px"
	 viewBox="0 0 496 512" style="enable-background:new 0 0 496 512;" xml:space="preserve">
<style type="text/css">
	.st0{fill:#333333;}
</style>
<path class="st0" d="M248,43.4C130.6,43.4,35.4,138.6,35.4,256S130.6,468.6,248,468.6S460.6,373.4,460.6,256S365.4,43.4,248,43.4z
	 M150.6,176.3c0-53.7,43.7-97.4,97.4-97.4s97.4,43.7,97.4,97.4v26.6c0,5-3.9,8.9-8.9,8.9h-17.7c-5,0-8.9-3.9-8.9-8.9v-26.6
	c0-82.1-124-82.1-124,0v26.6c0,5-3.9,8.9-8.9,8.9h-17.7c-5,0-8.9-3.9-8.9-8.9v-26.6H150.6z M389.7,380c0,9.7-8,17.7-17.7,17.7H124
	c-9.7,0-17.7-8-17.7-17.7V238.3c0-9.7,8-17.7,17.7-17.7h248c9.7,0,17.7,8,17.7,17.7V380z M141.7,242.7v132.9c0,2.5-1.9,4.4-4.4,4.4
	h-8.9c-2.5,0-4.4-1.9-4.4-4.4V242.7c0-2.5,1.9-4.4,4.4-4.4h8.9C139.8,238.3,141.7,240.2,141.7,242.7z M283.4,291.4
	c0,13-7.2,24.4-17.7,30.4v31.6c0,5-3.9,8.9-8.9,8.9h-17.7c-5,0-8.9-3.9-8.9-8.9v-31.6c-10.5-6.1-17.7-17.4-17.7-30.4
	c0-19.7,15.8-35.4,35.4-35.4S283.4,271.8,283.4,291.4z M248,8C111,8,0,119,0,256s111,248,248,248s248-111,248-248S385,8,248,8z
	 M248,486.3C121,486.3,17.7,383,17.7,256S121,25.7,248,25.7S478.3,129,478.3,256S375,486.3,248,486.3z"/>
</svg>
